<?xml version="1.0"?>
<svg xmlns="http://www.w3.org/2000/svg" id="Layer_1" height="512px" viewBox="0 0 512 512" width="512px" data-name="Layer 1"><g><path d="m66.337 475.4a35.12 35.12 0 0 0 25-10.354l234.825-234.83a115.62 115.62 0 0 1 -51.275-48.72l-233.549 233.55a35.353 35.353 0 0 0 25 60.351zm-16.761-53.566a24.728 24.728 0 1 1 0 34.97 24.57 24.57 0 0 1 0-34.97z" data-original="#000000" class="active-path" data-old_color="#000000" fill="#0973C4"/><path d="m67.062 454.046a14.631 14.631 0 0 0 10.413-4.313 14.728 14.728 0 1 0 -10.414 4.314z" data-original="#000000" class="active-path" data-old_color="#000000" fill="#0973C4"/><path d="m336.525 223.859a4.719 4.719 0 0 1 .439.175 105.135 105.135 0 0 0 137.813-133.3l-43.617 43.615a73.711 73.711 0 0 1 -104.244 0l-48.129-48.128a105.261 105.261 0 0 0 57.738 137.638z" data-original="#000000" class="active-path" data-old_color="#000000" fill="#0973C4"/><path d="m422.384 44.609c-32.887-11.328-62.151-10.636-87.078 2.082a86.793 86.793 0 0 0 -27.3 21.714l45.294 45.295z" data-original="#000000" class="active-path" data-old_color="#000000" fill="#0973C4"/></g> </svg>
